<!--svg created by Clayton Bond 22/08/2022-->
<svg xmlns="http://www.w3.org/2000/svg" fill="none" viewBox="7.84 40 600 925.75">
<path d="M332.5 27L383.162 114.75H281.838L332.5 27Z" fill="#EC5E95"/>
<path d="M116.5 32L167.162 119.75H65.8375L116.5 32Z" fill="#DD0A5C"/>
<path d="M277.5 124L328.162 211.75H226.838L277.5 124Z" fill="#EF367E"/>
<path d="M496.5 493L547.162 580.75H445.838L496.5 493Z" fill="#700831"/>
<path d="M332.5 586L383.162 673.75H281.838L332.5 586Z" fill="#EF367E"/>
<path d="M332.5 586L383.162 673.75H281.838L332.5 586Z" fill="#EF367E"/>
<path d="M58.5 119L109.162 206.75H7.83751L58.5 119Z" fill="#FFB9D4"/>
<path d="M327.5 404L378.162 491.75H276.838L327.5 404Z" fill="#EF367E"/>
<path d="M220.5 777L271.162 864.75H169.838L220.5 777Z" fill="#EF367E"/>
<path d="M222.5 588L273.162 675.75H171.838L222.5 588Z" fill="#EF367E"/>
<path d="M169.5 683L220.162 770.75H118.838L169.5 683Z" fill="#FFCFE2"/>
<path d="M277.5 124L328.162 211.75H226.838L277.5 124Z" fill="#EF367E"/>
<path d="M386.5 493L437.162 580.75H335.838L386.5 493Z" fill="#A55373"/>
<path d="M438.5 394L387.838 306.25H489.162L438.5 394Z" fill="#EF367E"/>
<path d="M59.5 300L8.83751 212.25L110.162 212.25L59.5 300Z" fill="#EF367E"/>
<path d="M444.5 207L393.838 119.25L495.162 119.25L444.5 207Z" fill="#A30945"/>
<path d="M489.5 487L438.838 399.25H540.162L489.5 487Z" fill="#EF367E"/>
<path d="M63.5 672L12.8375 584.25H114.162L63.5 672Z" fill="#FF619E"/>
<path d="M495.5 859L444.838 771.25H546.162L495.5 859Z" fill="#FF619E"/>
<path d="M219.5 394L168.838 306.25H270.162L219.5 394Z" fill="#B01A55"/>
<path d="M169.5 486L118.838 398.25H220.162L169.5 486Z" fill="#D24D81"/>
<path d="M328.5 766L277.838 678.25H379.162L328.5 766Z" fill="#C65581"/>
<path d="M498.5 119L447.838 31.25L549.162 31.25L498.5 119Z" fill="#EF367E"/>
<path d="M439.5 771L388.838 683.25H490.162L439.5 771Z" fill="#FF0063"/>
<path d="M439.5 771L388.838 683.25H490.162L439.5 771Z" fill="#FF0063"/>
<path d="M225.5 580L174.838 492.25H276.162L225.5 580Z" fill="#EF367E"/>
<path d="M548.5 399L599.162 486.75H497.838L548.5 399Z" fill="#E191B1"/>
<path d="M599.5 310L650.162 397.75H548.838L599.5 310Z" fill="#EF367E"/>
<path d="M599.5 310L650.162 397.75H548.838L599.5 310Z" fill="#B04770"/>
<path d="M605.5 124L656.162 211.75H554.838L605.5 124Z" fill="#FA8FB8"/>
<path d="M438.5 32L489.162 119.75H387.838L438.5 32Z" fill="#00AFEF"/>
<path d="M438.5 32L489.162 119.75H387.838L438.5 32Z" fill="#00AFEF"/>
<path d="M438.5 32L489.162 119.75H387.838L438.5 32Z" fill="#67CFF5"/>
<path d="M219.5 219L270.162 306.75H168.838L219.5 219Z" fill="#00AFEF"/>
<path d="M277.5 311L328.162 398.75H226.838L277.5 311Z" fill="#00AFEF"/>
<path d="M225.5 402L276.162 489.75H174.838L225.5 402Z" fill="#49B2D9"/>
<path d="M601.5 493L652.162 580.75H550.838L601.5 493Z" fill="#71D9FF"/>
<path d="M439.5 586L490.162 673.75H388.838L439.5 586Z" fill="#0B7095"/>
<path d="M548.5 586L599.162 673.75H497.838L548.5 586Z" fill="#6EBFDD"/>
<path d="M112.5 586L163.162 673.75H61.8375L112.5 586Z" fill="#56D1FE"/>
<path d="M495.5 679L546.162 766.75H444.838L495.5 679Z" fill="#41C3F2"/>
<path d="M439.5 776L490.162 863.75H388.838L439.5 776Z" fill="#41C3F2"/>
<path d="M277.5 679L328.162 766.75H226.838L277.5 679Z" fill="#00AFEF"/>
<path d="M386.5 124L437.162 211.75H335.838L386.5 124Z" fill="#00AFEF"/>
<path d="M386.5 124L437.162 211.75H335.838L386.5 124Z" fill="#03BCFF"/>
<path d="M547.5 216L598.162 303.75H496.838L547.5 216Z" fill="#00AFEF"/>
<path d="M59.5 486L110.162 573.75H8.83751L59.5 486Z" fill="#00AFEF"/>
<path d="M385.5 865L436.162 952.75H334.838L385.5 865Z" fill="#00AFEF"/>
<path d="M116.5 218L167.162 305.75H65.8375L116.5 218Z" fill="#0481AE"/>
<path d="M548.5 394L497.838 306.25H599.162L548.5 394Z" fill="#4DBEE8"/>
<path d="M168.5 672L117.838 584.25H219.162L168.5 672Z" fill="#00AFEF"/>
<path d="M278.5 300L227.838 212.25H329.162L278.5 300Z" fill="#0087B9"/>
<path d="M605.5 119L554.838 31.25L656.162 31.25L605.5 119Z" fill="#57BCE1"/>
<path d="M605.5 487L554.838 399.25H656.162L605.5 487Z" fill="#2E7A96"/>
<path d="M381.5 859L330.838 771.25H432.162L381.5 859Z" fill="#2E7A96"/>
<path d="M554.5 207L503.838 119.25L605.162 119.25L554.5 207Z" fill="#3C788E"/>
<path d="M227.5 207L176.838 119.25L278.162 119.25L227.5 207Z" fill="#B9E2F1"/>
<path d="M274.5 117L223.838 29.25L325.162 29.25L274.5 117Z" fill="#00AFEF"/>
<path d="M116.5 577L65.8375 489.25H167.162L116.5 577Z" fill="#B7ECFF"/>
<path d="M439.5 580L388.838 492.25H490.162L439.5 580Z" fill="#00AFEF"/>
<path d="M380.5 487L329.838 399.25H431.162L380.5 487Z" fill="#A8D6E7"/>
</svg>